P3
#MAX=255.000000

16 16
255
38 27 24     24 24 24     35 35 35     39 39 38     36 36 36     50 34 34     46 51 46     84 53 53     66 60 56     60 55 55     49 49 49     51 65 41     39 61 39     35 41 31     32 32 32     47 49 36     
93 29 18     64 18 18     53 38 38     46 30 30     47 40 35     71 68 65     63 54 54     76 77 69     72 77 65     66 95 64     53 66 53     40 34 34     43 44 39     26 41 26     57 54 40     8 82 8     
120 38 32     88 14 14     36 23 23     33 36 29     33 29 24     40 39 36     31 31 31     48 54 48     48 53 48     45 43 43     44 50 44     25 25 25     36 44 30     20 58 20     7 82 7     19 85 8     
118 34 33     88 13 13     53 14 14     49 53 48     59 49 43     51 53 48     58 56 50     48 45 45     56 56 54     55 47 47     46 53 45     50 43 40     44 41 37     14 62 14     10 86 10     25 91 14     
87 12 2     87 5 5     46 31 31     46 45 45     59 50 47     49 45 45     47 47 47     51 58 50     60 62 56     70 56 53     52 46 45     49 53 46     42 48 42     11 80 11     18 94 15     20 84 9     
97 36 19     87 9 9     62 7 7     44 46 41     42 42 42     47 47 47     50 50 50     59 56 51     69 57 57     53 71 47     64 60 56     49 41 41     50 43 43     20 73 20     13 93 13     29 102 25     
92 15 15     99 16 16     56 33 29     54 53 51     54 43 43     51 63 51     72 73 63     63 60 57     62 61 54     56 56 51     44 44 44     54 51 49     37 37 37     26 68 18     20 98 20     13 87 13     
83 11 11     82 13 9     97 27 24     43 46 41     52 46 41     46 50 46     60 50 49     58 52 47     65 63 59     47 50 45     45 45 44     48 68 45     48 52 44     34 81 32     23 89 15     18 91 18     
103 30 16     85 22 7     72 30 24     41 46 41     51 49 45     45 43 42     68 48 46     53 49 44     55 45 45     50 54 47     53 46 46     55 39 39     44 38 38     14 65 14     29 98 29     23 98 23     
100 30 28     76 10 10     52 6 6     40 42 38     47 47 39     44 46 39     47 47 47     40 40 40     61 63 53     40 45 40     46 44 42     43 38 37     55 54 49     20 55 20     15 72 7     37 87 23     
79 22 18     68 6 6     72 12 11     40 40 36     39 41 33     39 41 39     45 55 44     50 47 39     47 40 36     40 44 40     45 43 40     43 41 34     47 59 41     34 64 26     4 68 4     15 76 15     
69 5 8     56 0 0     51 11 11     44 19 29     65 24 40     97 24 59     52 42 38     56 54 43     41 37 34     56 46 46     32 28 82     17 17 84     37 55 59     30 48 29     28 83 21     14 72 11     
78 30 24     73 24 14     56 18 10     26 6 16     35 8 21     94 15 53     58 37 43     49 41 37     49 38 36     53 48 61     22 25 99     7 9 35     24 44 69     40 38 32     13 67 13     26 94 26     
78 41 27     73 20 16     39 19 18     41 6 8     26 0 8     29 15 22     30 9 15     56 62 54     75 79 64     41 22 37     37 24 40     0 0 31     20 33 67     15 19 24     8 61 8     12 63 12     
86 18 18     42 16 16     19 19 19     21 25 16     11 0 5     36 26 23     54 63 54     84 73 69     63 57 57     79 69 69     12 12 44     9 7 35     22 33 19     28 40 31     48 90 48     18 64 12     
67 31 31     70 58 58     59 59 50     55 62 46     56 46 46     74 61 58     54 81 54     65 79 65     84 76 75     53 60 53     16 15 21     0 0 14     37 35 40     7 11 7     7 26 7     9 9 9     

