P3
#MAX=255.000000

16 16
255
155 155 155     155 155 155     155 155 155     155 155 155     155 155 155     155 155 155     155 155 155     155 155 155     155 155 155     155 155 155     155 155 155     155 155 155     155 155 155     155 155 155     155 155 155     0 255 0     
255 0 0     155 155 155     155 155 155     155 155 155     155 155 155     155 155 155     155 155 155     155 155 155     155 155 155     155 155 155     155 155 155     155 155 155     155 155 155     155 155 155     0 255 0     0 255 0     
255 0 0     255 0 0     255 0 0     155 155 155     155 155 155     155 155 155     155 155 155     155 155 155     155 155 155     155 155 155     155 155 155     155 155 155     155 155 155     155 155 155     0 255 0     0 255 0     
255 0 0     255 0 0     255 0 0     155 155 155     155 155 155     155 155 155     155 155 155     155 155 155     155 155 155     155 155 155     155 155 155     155 155 155     155 155 155     0 255 0     0 255 0     0 255 0     
255 0 0     255 0 0     255 0 0     155 155 155     155 155 155     155 155 155     155 155 155     155 155 155     155 155 155     155 155 155     155 155 155     155 155 155     155 155 155     155 155 155     0 255 0     0 255 0     
255 0 0     255 0 0     255 0 0     155 155 155     155 155 155     155 155 155     155 155 155     155 155 155     155 155 155     155 155 155     155 155 155     155 155 155     155 155 155     0 255 0     0 255 0     0 255 0     
255 0 0     255 0 0     155 155 155     155 155 155     155 155 155     155 155 155     155 155 155     155 155 155     155 155 155     155 155 155     155 155 155     155 155 155     155 155 155     0 255 0     0 255 0     0 255 0     
255 0 0     255 0 0     155 155 155     155 155 155     155 155 155     155 155 155     155 155 155     155 155 155     155 155 155     155 155 155     155 155 155     155 155 155     155 155 155     155 155 155     0 255 0     0 255 0     
255 0 0     255 0 0     255 0 0     155 155 155     155 155 155     155 155 155     155 155 155     155 155 155     155 155 155     155 155 155     155 155 155     155 155 155     155 155 155     0 255 0     0 255 0     0 255 0     
255 0 0     255 0 0     255 0 0     155 155 155     155 155 155     155 155 155     155 155 155     155 155 155     155 155 155     155 155 155     155 155 155     155 155 155     155 155 155     155 155 155     0 255 0     0 255 0     
255 0 0     255 0 0     255 0 0     155 155 155     155 155 155     155 155 155     155 155 155     155 155 155     155 155 155     155 155 155     155 155 155     155 155 155     155 155 155     0 255 0     0 255 0     0 255 0     
255 0 0     255 0 0     255 0 0     255 0 128     255 0 128     255 0 128     155 155 155     155 155 155     155 155 155     155 155 155     155 155 155     0 0 255     155 155 155     0 255 0     0 255 0     0 255 0     
255 0 0     255 0 0     155 155 155     255 0 128     255 0 128     255 0 128     255 0 128     155 155 155     155 155 155     0 0 255     0 0 255     0 0 255     0 0 255     0 0 255     0 255 0     0 255 0     
255 0 0     255 0 0     255 0 0     255 0 128     255 0 128     255 0 128     155 155 155     155 155 155     155 155 155     155 155 155     0 0 255     0 0 255     0 0 255     0 0 255     0 255 0     0 255 0     
255 0 0     255 0 0     155 155 155     155 155 155     255 0 128     255 0 128     155 155 155     155 155 155     155 155 155     155 155 155     0 0 255     0 0 255     0 0 255     0 0 255     155 155 155     0 255 0     
255 0 0     155 155 155     155 155 155     155 155 155     155 155 155     155 155 155     155 155 155     155 155 155     155 155 155     155 155 155     155 155 155     0 0 255     0 0 255     155 155 155     155 155 155     155 155 155     

