P3
#MAX=65025.000000

5 5
255
0 0 0     0 0 0     0 0 0     0 0 0     0 0 0     
0 0 0     255 255 255     0 0 0     255 1 255     255 255 255     
0 0 0     255 1 255     255 255 255     0 0 0     0 0 0     
255 1 255     0 0 0     255 255 255     0 0 0     0 0 0     
0 0 0     0 0 0     0 0 0     0 0 0     1 0 1     

