####
#
# OBJ File Generated by Meshlab
#
####
# Object diamond3.obj
#
# Vertices: 6
# Faces: 9
#
####
vn 0.000000 -0.463023 -0.886346
v 0.000000 0.000000 8.329395
vn -0.279800 -0.931376 -0.232918
v 4.805420 4.805420 0.000000
vn -0.707107 0.707107 0.000000
v 4.805420 -4.805420 0.000000
vn 0.707107 0.707107 0.000000
v -4.805420 -4.805420 0.000000
vn 0.279800 -0.931376 -0.232918
v -4.805420 4.805420 0.000000
vn 0.000000 -0.117920 0.993023
v 0.000000 0.000000 -8.329395
# 6 vertices, 0 vertices normals

f 1//1 2//2 3//3
f 1//1 3//3 4//4
f 1//1 4//4 5//5
f 1//1 5//5 2//2
f 6//6 5//5 4//4
f 6//6 4//4 3//3
f 6//6 3//3 2//2
f 6//6 2//2 1//1
f 6//6 1//1 5//5
# 9 faces, 0 coords texture

# End of File
