####
#
# OBJ File Generated by Meshlab
#
####
# Object diamond5.obj
#
# Vertices: 6
# Faces: 9
#
####
vn 0.390943 0.886346 -0.248100
v 0.000000 -0.260294 -0.000000
vn 0.636462 0.232918 -0.735299
v -0.046327 -0.000000 0.207257
vn -0.975917 -0.000000 -0.218143
v 0.207257 0.000000 0.046327
vn -0.218143 -0.000000 0.975917
v 0.046327 0.000000 -0.207257
vn 0.936311 0.232918 -0.262813
v -0.207257 -0.000000 -0.046327
vn 0.099563 -0.993023 -0.063185
v -0.000000 0.260294 0.000000
# 6 vertices, 0 vertices normals

f 1//1 2//2 3//3
f 1//1 3//3 4//4
f 1//1 4//4 5//5
f 1//1 5//5 2//2
f 6//6 5//5 4//4
f 6//6 4//4 3//3
f 6//6 3//3 2//2
f 6//6 2//2 1//1
f 6//6 1//1 5//5
# 9 faces, 0 coords texture

# End of File
